<svg width="16" height="13" viewBox="0 0 16 13" fill="none" xmlns="http://www.w3.org/2000/svg">
<path d="M14.0532 5.08008H2.86709C2.49189 5.08008 2.18643 5.38389 2.18643 5.76074C2.18643 6.13594 2.49023 6.44141 2.86709 6.44141H13.7743V11.5065H1.35635V1.36133H6.12598L7.00088 2.7127C7.05926 2.82074 7.14579 2.91097 7.25131 2.97382C7.35683 3.03666 7.47738 3.06977 7.6002 3.06963H12.4462V4.12217C12.4462 4.49736 12.75 4.80283 13.1269 4.80283C13.5037 4.80283 13.8075 4.49902 13.8075 4.12217V2.74092C13.7544 2.16484 13.2713 1.71494 12.6819 1.71494H11.7771V1.71162H7.97373L7.07891 0.328711L7.06894 0.313769C6.94775 0.126172 6.73691 0 6.49619 0H2.03701V0.00166H1.13223C0.508008 0.00166 0.00166019 0.508008 0.00166019 1.13223V1.14053H0V11.8253C0.0398438 12.3698 0.464844 12.8064 1.00439 12.8646H14.0698C14.6193 12.8396 15.0659 12.4229 15.1373 11.8867V6.10273C15.0825 5.54326 14.621 5.10166 14.0532 5.08008Z" fill="white"/>
</svg>
